<?xml version="1.0" encoding="iso-8859-1"?>
<svg version="1.1" id="Layer_1" xmlns="http://www.w3.org/2000/svg" xmlns:xlink="http://www.w3.org/1999/xlink" x="0px" y="0px"
	 viewBox="0 0 455.73 455.73" style="enable-background:new 0 0 455.73 455.73;" xml:space="preserve">
<path style="fill:#C536A4;" d="M227.86,182.55c-24.98,0-45.32,20.33-45.32,45.31c0,24.99,20.34,45.33,45.32,45.33
	c24.99,0,45.32-20.34,45.32-45.33C273.18,202.88,252.85,182.55,227.86,182.55z M227.86,182.55c-24.98,0-45.32,20.33-45.32,45.31
	c0,24.99,20.34,45.33,45.32,45.33c24.99,0,45.32-20.34,45.32-45.33C273.18,202.88,252.85,182.55,227.86,182.55z M303.36,108.66
	H152.37c-24.1,0-43.71,19.61-43.71,43.71v150.99c0,24.1,19.61,43.71,43.71,43.71h150.99c24.1,0,43.71-19.61,43.71-43.71V152.37
	C347.07,128.27,327.46,108.66,303.36,108.66z M227.86,306.35c-43.27,0-78.48-35.21-78.48-78.49c0-43.27,35.21-78.48,78.48-78.48
	c43.28,0,78.49,35.21,78.49,78.48C306.35,271.14,271.14,306.35,227.86,306.35z M308.87,165.61c-10.24,0-18.57-8.33-18.57-18.57
	s8.33-18.57,18.57-18.57s18.57,8.33,18.57,18.57S319.11,165.61,308.87,165.61z M227.86,182.55c-24.98,0-45.32,20.33-45.32,45.31
	c0,24.99,20.34,45.33,45.32,45.33c24.99,0,45.32-20.34,45.32-45.33C273.18,202.88,252.85,182.55,227.86,182.55z M303.36,108.66
	H152.37c-24.1,0-43.71,19.61-43.71,43.71v150.99c0,24.1,19.61,43.71,43.71,43.71h150.99c24.1,0,43.71-19.61,43.71-43.71V152.37
	C347.07,128.27,327.46,108.66,303.36,108.66z M227.86,306.35c-43.27,0-78.48-35.21-78.48-78.49c0-43.27,35.21-78.48,78.48-78.48
	c43.28,0,78.49,35.21,78.49,78.48C306.35,271.14,271.14,306.35,227.86,306.35z M308.87,165.61c-10.24,0-18.57-8.33-18.57-18.57
	s8.33-18.57,18.57-18.57s18.57,8.33,18.57,18.57S319.11,165.61,308.87,165.61z M227.86,182.55c-24.98,0-45.32,20.33-45.32,45.31
	c0,24.99,20.34,45.33,45.32,45.33c24.99,0,45.32-20.34,45.32-45.33C273.18,202.88,252.85,182.55,227.86,182.55z M0,0v455.73h455.73
	V0H0z M380.23,303.36c0,42.39-34.48,76.87-76.87,76.87H152.37c-42.39,0-76.87-34.48-76.87-76.87V152.37
	c0-42.39,34.48-76.87,76.87-76.87h150.99c42.39,0,76.87,34.48,76.87,76.87V303.36z M303.36,108.66H152.37
	c-24.1,0-43.71,19.61-43.71,43.71v150.99c0,24.1,19.61,43.71,43.71,43.71h150.99c24.1,0,43.71-19.61,43.71-43.71V152.37
	C347.07,128.27,327.46,108.66,303.36,108.66z M227.86,306.35c-43.27,0-78.48-35.21-78.48-78.49c0-43.27,35.21-78.48,78.48-78.48
	c43.28,0,78.49,35.21,78.49,78.48C306.35,271.14,271.14,306.35,227.86,306.35z M308.87,165.61c-10.24,0-18.57-8.33-18.57-18.57
	s8.33-18.57,18.57-18.57s18.57,8.33,18.57,18.57S319.11,165.61,308.87,165.61z M227.86,182.55c-24.98,0-45.32,20.33-45.32,45.31
	c0,24.99,20.34,45.33,45.32,45.33c24.99,0,45.32-20.34,45.32-45.33C273.18,202.88,252.85,182.55,227.86,182.55z M227.86,182.55
	c-24.98,0-45.32,20.33-45.32,45.31c0,24.99,20.34,45.33,45.32,45.33c24.99,0,45.32-20.34,45.32-45.33
	C273.18,202.88,252.85,182.55,227.86,182.55z M227.86,182.55c-24.98,0-45.32,20.33-45.32,45.31c0,24.99,20.34,45.33,45.32,45.33
	c24.99,0,45.32-20.34,45.32-45.33C273.18,202.88,252.85,182.55,227.86,182.55z M303.36,108.66H152.37
	c-24.1,0-43.71,19.61-43.71,43.71v150.99c0,24.1,19.61,43.71,43.71,43.71h150.99c24.1,0,43.71-19.61,43.71-43.71V152.37
	C347.07,128.27,327.46,108.66,303.36,108.66z M227.86,306.35c-43.27,0-78.48-35.21-78.48-78.49c0-43.27,35.21-78.48,78.48-78.48
	c43.28,0,78.49,35.21,78.49,78.48C306.35,271.14,271.14,306.35,227.86,306.35z M308.87,165.61c-10.24,0-18.57-8.33-18.57-18.57
	s8.33-18.57,18.57-18.57s18.57,8.33,18.57,18.57S319.11,165.61,308.87,165.61z M227.86,182.55c-24.98,0-45.32,20.33-45.32,45.31
	c0,24.99,20.34,45.33,45.32,45.33c24.99,0,45.32-20.34,45.32-45.33C273.18,202.88,252.85,182.55,227.86,182.55z M227.86,182.55
	c-24.98,0-45.32,20.33-45.32,45.31c0,24.99,20.34,45.33,45.32,45.33c24.99,0,45.32-20.34,45.32-45.33
	C273.18,202.88,252.85,182.55,227.86,182.55z M227.86,182.55c-24.98,0-45.32,20.33-45.32,45.31c0,24.99,20.34,45.33,45.32,45.33
	c24.99,0,45.32-20.34,45.32-45.33C273.18,202.88,252.85,182.55,227.86,182.55z M303.36,108.66H152.37
	c-24.1,0-43.71,19.61-43.71,43.71v150.99c0,24.1,19.61,43.71,43.71,43.71h150.99c24.1,0,43.71-19.61,43.71-43.71V152.37
	C347.07,128.27,327.46,108.66,303.36,108.66z M227.86,306.35c-43.27,0-78.48-35.21-78.48-78.49c0-43.27,35.21-78.48,78.48-78.48
	c43.28,0,78.49,35.21,78.49,78.48C306.35,271.14,271.14,306.35,227.86,306.35z M308.87,165.61c-10.24,0-18.57-8.33-18.57-18.57
	s8.33-18.57,18.57-18.57s18.57,8.33,18.57,18.57S319.11,165.61,308.87,165.61z M227.86,182.55c-24.98,0-45.32,20.33-45.32,45.31
	c0,24.99,20.34,45.33,45.32,45.33c24.99,0,45.32-20.34,45.32-45.33C273.18,202.88,252.85,182.55,227.86,182.55z"/>
</svg>
