<?xml version="1.0" encoding="iso-8859-1"?>
<!-- Generator: Adobe Illustrator 18.0.0, SVG Export Plug-In . SVG Version: 6.00 Build 0)  -->
<svg version="1.1" id="Capa_1" xmlns="http://www.w3.org/2000/svg" xmlns:xlink="http://www.w3.org/1999/xlink" x="0px" y="0px"
	 viewBox="0 0 455.731 455.731" style="enable-background:new 0 0 455.731 455.731;" xml:space="preserve">
	<rect x="0" y="0" style="fill:#F89029;" width="455.731" height="455.731"/>
	<path style="fill:#FFFFFF;" d="M349.922,190.236h-14.072c-11.015,0-19.944-8.929-19.944-19.944v-1.389
		c0-46.252-37.495-83.747-83.747-83.747h-62.547c-46.252,0-83.747,37.495-83.747,83.747v117.927
		c0,46.252,37.495,83.747,83.747,83.747h116.507c46.252,0,83.747-37.495,83.747-83.747v-76.649
		C369.866,199.165,360.936,190.236,349.922,190.236z M173.196,157.576h66.74c9.019,0,16.33,7.311,16.33,16.33
		s-7.311,16.33-16.33,16.33h-66.74c-9.019,0-16.33-7.311-16.33-16.33S164.177,157.576,173.196,157.576z M283.956,298.156h-110.76
		c-9.019,0-16.33-7.311-16.33-16.33c0-9.019,7.311-16.33,16.33-16.33h110.76c9.019,0,16.33,7.311,16.33,16.33
		C300.286,290.844,292.974,298.156,283.956,298.156z"/>
</svg>
