<?xml version="1.0" encoding="iso-8859-1"?>
<svg xmlns:xlink="http://www.w3.org/1999/xlink" style="enable-background:new 0 0 512 512;" id="Layer_1" version="1.1" viewBox="0 0 512 512" x="0px"
	 xmlns="http://www.w3.org/2000/svg" y="0px" xml:space="preserve">
<path style="fill:#808080;" d="M411.814,32.962v446.077c0,12.803-7.29,23.881-17.94,29.342c-4.501,2.322-9.612,3.619-15.021,3.619
	h-245.7c-18.2,0-32.962-14.749-32.962-32.962V32.962c0-18.2,14.762-32.962,32.962-32.962h245.7c3.606,0,7.083,0.584,10.326,1.66
	C402.319,5.98,411.814,18.368,411.814,32.962z"/>
	<path style="fill:#E6E6E6;" d="M411.816,32.962v53.678H100.192V32.962c0-18.2,14.762-32.962,32.962-32.962h245.7
		C397.054,0,411.816,14.762,411.816,32.962z"/>
	<path style="fill:#E6E6E6;" d="M411.816,426.347v52.692c0,18.213-14.762,32.962-32.962,32.962h-245.7
		c-18.2,0-32.962-14.749-32.962-32.962v-52.692H411.816z"/>
<polygon style="fill:#F95428;" points="337.421,343.405 256.009,306.668 234.151,316.527 174.585,343.405 256.009,168.608
	280.785,221.819 "/>
<polygon style="fill:#E54728;" points="337.421,343.405 256.009,306.668 256.009,168.608 280.785,221.819 "/>
	<path style="fill:#999999;" d="M291.182,52.51h-70.357c-4.298,0-7.783-3.486-7.783-7.783s3.486-7.783,7.783-7.783h70.357
		c4.298,0,7.783,3.486,7.783,7.783S295.481,52.51,291.182,52.51z"/>
	<path style="fill:#999999;" d="M263.943,483.07h-15.878c-7.164,0-12.972-5.807-12.972-12.972s5.808-12.972,12.972-12.972h15.878
		c7.164,0,12.972,5.807,12.972,12.972S271.107,483.07,263.943,483.07z"/>
	<polygon style="fill:#999999;" points="411.814,86.639 411.814,426.347 180.085,426.347 347.344,86.639 	"/>
<polygon style="fill:#F9705A;" points="337.421,343.405 256.009,306.668 234.151,316.527 280.785,221.819 "/>
<polygon style="fill:#F75F41;" points="337.421,343.405 256.009,306.668 256.009,272.137 280.785,221.819 "/>
	<rect style="fill:#4D4D4D;" height="15.566" width="311.623" x="100.184" y="418.564"/>
	<rect style="fill:#4D4D4D;" height="15.566" width="311.623" x="100.184" y="78.856"/>
</svg>
